<svg xmlns="http://www.w3.org/2000/svg" viewBox="0 0 750 500"><g id="freepik--background-simple--inject-60"><path d="M670.94,207.93c-25.62-41-60.83-76.73-97.78-104.38-37.39-28-81.78-49-128.84-52.35A271.72,271.72,0,0,0,308.26,76.62C277.5,91.29,250,111.7,229.63,139.24c-3.26,4.41-5.28,8.9-7.48,13.95-.39.89-.76,1.78-1.12,2.67a235.76,235.76,0,0,0-12.48,41.5c-1.62,8.08-2.31,16.81-5.48,24.49-9.37,22.68-39.14,29.21-58,41.61C100,293.14,58.57,344.55,67.34,401.78l0,.21c8,51.22,29.93,56.54,29.93,56.54H684.67s27.94-43.24,26.61-124.39C710.54,289,694.71,245.91,670.94,207.93Z" style="fill:#A892E3"></path><path d="M670.94,207.93c-25.62-41-60.83-76.73-97.78-104.38-37.39-28-81.78-49-128.84-52.35A271.72,271.72,0,0,0,308.26,76.62C277.5,91.29,250,111.7,229.63,139.24c-3.26,4.41-5.28,8.9-7.48,13.95-.39.89-.76,1.78-1.12,2.67a235.76,235.76,0,0,0-12.48,41.5c-1.62,8.08-2.31,16.81-5.48,24.49-9.37,22.68-39.14,29.21-58,41.61C100,293.14,58.57,344.55,67.34,401.78l0,.21c8,51.22,29.93,56.54,29.93,56.54H684.67s27.94-43.24,26.61-124.39C710.54,289,694.71,245.91,670.94,207.93Z" style="fill:#fff;opacity:0.7000000000000001"></path></g><g id="freepik--Plants--inject-60"><path d="M27.11,387.24c2.4,1.05,8.28.91,8.28.91s-1.26-3.84-1.37-4.08c-1.29-2.7-5.37-7.15-8.69-6.7a4,4,0,0,0-3.18,5C22.7,384.63,25.06,386.34,27.11,387.24Z" style="fill:#263238"></path><path d="M29.13,404.26c2.5.37,7.74-1.15,8.16-1.28a71.18,71.18,0,0,0,3.18,8.81c.72,1.67,1.5,3.33,2.3,5-.47-.7-.91-1.32-1-1.4-1.95-2.27-7.06-5.48-10.15-4.18a4,4,0,0,0-1.75,5.64c1.14,2.07,3.86,3.09,6.07,3.41s6.74-.88,7.93-1.21c.31.63.62,1.26.94,1.89,1.52,3,3.05,6,4.45,9,.5,1.06.95,2.12,1.41,3.18-.43-.63-.79-1.15-.86-1.22-1.95-2.26-7.06-5.48-10.14-4.17a4,4,0,0,0-1.76,5.63c1.14,2.07,3.86,3.09,6.07,3.42s6.31-.77,7.72-1.16c.43,1.1.87,2.19,1.24,3.28.23.74.51,1.44.71,2.21s.41,1.49.62,2.22c.34,1.44.71,2.91,1,4.31.21,1,.4,1.91.59,2.85-.48-1.06-1.47-3.11-1.57-3.27-1.59-2.53-6.16-6.49-9.4-5.66a4,4,0,0,0-2.59,5.3c.81,2.22,3.35,3.64,5.49,4.3,2.35.72,7.55.06,8.2,0,.32,1.56.61,3.07.86,4.51q.27,1.59.51,3.06h2.09c-.2-1.09-.42-2.23-.65-3.42-.31-1.59-.68-3.27-1.07-5a45,45,0,0,0,4.58-2.16c1.72,1.86,6.11,4,6.68,4.31-.6,1.47-1.2,2.89-1.78,4.23l-.9,2h2.2l.53-1.26c.61-1.49,1.24-3.1,1.86-4.75.63.13,5.79,1.18,8.19.64,2.18-.5,4.82-1.73,5.79-3.88A4,4,0,0,0,82.73,444c-3.18-1.07-8,2.54-9.8,4.95-.11.14-1.07,1.81-1.66,2.87.25-.68.5-1.33.76-2,.5-1.39,1-2.78,1.47-4.28.22-.73.44-1.47.67-2.21s.39-1.54.59-2.32c.44-1.81.78-3.67,1.09-5.55,1.21.44,5.54,1.94,7.77,1.78s5-1,6.32-2.95a4,4,0,0,0-1.34-5.75c-3-1.53-8.31,1.3-10.43,3.41-.13.13-1.48,1.81-2.2,2.75.17-1.13.36-2.26.5-3.41.41-3.32.72-6.69,1-10.06.1-1,.21-2.05.32-3.08.43.16,5.53,2.06,8,1.88,2.22-.15,5-1,6.31-2.95a4,4,0,0,0-1.33-5.75c-3-1.53-8.31,1.3-10.43,3.41-.16.16-2.1,2.58-2.57,3.22.24-2.26.5-4.51.85-6.72a68.68,68.68,0,0,1,1.93-8.85c.2.08,5.51,2.08,8.07,1.9,2.23-.15,5-1,6.32-2.95a4,4,0,0,0-1.33-5.75c-3-1.53-8.32,1.3-10.44,3.41-.16.16-2.25,2.77-2.59,3.28,0-.17.08-.35.13-.52a51.51,51.51,0,0,1,3.5-8.37c.77-1.49,1.58-2.87,2.4-4.2,1,.48,5.32,2.6,7.65,2.69s5.1-.41,6.6-2.24a4,4,0,0,0-.7-5.86c-2.79-1.85-8.4.37-10.74,2.24-.13.1-1.3,1.27-2.15,2.14.38-.59.76-1.21,1.13-1.77,1.4-2.11,2.82-4,4.08-5.58.73-.92,1.4-1.74,2-2.49,1.18,0,5.92-.17,8-1.14s4.33-2.72,4.82-5a4,4,0,0,0-3.31-4.88c-3.33-.36-7.29,4.2-8.51,6.93-.1.24-1.32,4.12-1.26,4.12h.07c-.63.72-1.3,1.49-2,2.35-1.3,1.6-2.76,3.42-4.21,5.51a70.17,70.17,0,0,0-4.37,6.95,52.81,52.81,0,0,0-3.73,8.4l0,.11c0-1,0-3.73,0-3.94-.39-3-2.87-8.47-6.16-9.08a4,4,0,0,0-4.58,3.73c-.19,2.36,1.52,4.72,3.19,6.2,1.88,1.68,7.09,3.31,7.51,3.44A70.55,70.55,0,0,0,77.76,411c-.32,1.79-.58,3.61-.83,5.43,0-.85,0-1.61,0-1.71-.39-3-2.87-8.47-6.17-9.08a4,4,0,0,0-4.57,3.73c-.19,2.35,1.52,4.71,3.19,6.2s6.1,3,7.28,3.36l-.27,2.1c-.4,3.36-.78,6.71-1.26,10-.17,1.16-.38,2.29-.58,3.42,0-.75,0-1.38-.05-1.48-.38-3-2.87-8.47-6.16-9.08a4,4,0,0,0-4.57,3.73c-.19,2.35,1.52,4.71,3.18,6.2s5.68,2.84,7.07,3.29c-.24,1.16-.48,2.31-.77,3.42-.22.75-.37,1.49-.63,2.23s-.47,1.48-.71,2.21c-.5,1.38-1,2.81-1.54,4.15-.35.93-.71,1.81-1.07,2.7.18-1.15.49-3.41.49-3.6a15.38,15.38,0,0,0-2.06-7.48,4.29,4.29,0,0,0-.06-.88,4,4,0,0,0-4.84-3.36c-3.24.86-5.29,6.54-5.44,9.53,0,.17.1,2.1.19,3.31-.16-.71-.31-1.39-.48-2.11-.34-1.44-.73-2.85-1.13-4.38-.22-.73-.44-1.47-.67-2.22s-.52-1.5-.78-2.26c-.64-1.75-1.37-3.49-2.15-5.23,1.25-.3,5.68-1.43,7.46-2.8s3.65-3.58,3.64-5.95a4,4,0,0,0-4.28-4.05c-3.33.36-6.22,5.66-6.83,8.59,0,.18-.23,2.33-.32,3.52-.47-1-.94-2.09-1.46-3.12-1.49-3-3.08-6-4.67-9l-1.43-2.74c.45-.11,5.74-1.34,7.74-2.86,1.77-1.36,3.65-3.59,3.63-5.95a4,4,0,0,0-4.28-4.06c-3.33.36-6.22,5.66-6.82,8.59-.05.22-.33,3.32-.36,4.11-1.05-2-2.07-4-3-6.07A69.29,69.29,0,0,1,38.08,403c.21,0,5.74-1.3,7.78-2.87,1.77-1.36,3.65-3.58,3.64-5.95a4,4,0,0,0-4.28-4.05c-3.33.36-6.22,5.66-6.83,8.59,0,.23-.34,3.56-.35,4.17-.06-.17-.13-.34-.18-.51a50.67,50.67,0,0,1-1.69-8.91c-.19-1.66-.27-3.26-.32-4.82,1-.13,5.87-.77,7.86-2s4-3.16,4.27-5.51a4,4,0,0,0-3.81-4.5c-3.35,0-6.8,4.94-7.73,7.79,0,.15-.38,1.78-.61,3,0-.7,0-1.43,0-2.1,0-2.53.16-4.85.32-6.9.1-1.17.21-2.22.33-3.21,1-.66,4.84-3.4,6-5.35s2.12-4.66,1.25-6.86a4,4,0,0,0-5.46-2.24c-3,1.54-3.75,7.52-3.26,10.47,0,.26,1.16,4.17,1.22,4.14l.05-.05c-.13,1-.26,2-.38,3.07-.2,2.06-.41,4.38-.47,6.92a67.92,67.92,0,0,0,.2,8.21,51.8,51.8,0,0,0,1.52,9.06l0,.11c-.53-.83-2.08-3.09-2.22-3.25-2-2.27-7.06-5.48-10.14-4.18a4,4,0,0,0-1.76,5.63C24.2,402.92,26.92,403.94,29.13,404.26Z" style="fill:#263238"></path><path d="M86.56,388.53s1.07-3.91,1.11-4.16c.41-3-.54-8.93-3.55-10.39a4,4,0,0,0-5.39,2.39c-.81,2.22.21,4.95,1.43,6.82C81.58,385.39,86.56,388.53,86.56,388.53Z" style="fill:#263238"></path><path d="M638.53,387.24c2.4,1.05,8.28.91,8.28.91s-1.26-3.84-1.37-4.08c-1.29-2.7-5.37-7.15-8.69-6.7a4,4,0,0,0-3.18,5C634.12,384.63,636.48,386.34,638.53,387.24Z" style="fill:#263238"></path><path d="M640.55,404.26c2.5.37,7.74-1.15,8.16-1.28a71.18,71.18,0,0,0,3.18,8.81c.72,1.67,1.5,3.33,2.3,5-.47-.7-.91-1.32-1-1.4-2-2.27-7.06-5.48-10.15-4.18a4,4,0,0,0-1.75,5.64c1.14,2.07,3.86,3.09,6.07,3.41s6.74-.88,7.93-1.21c.31.63.62,1.26.94,1.89,1.52,3,3,6,4.45,9,.5,1.06.95,2.12,1.41,3.18-.43-.63-.79-1.15-.86-1.22-2-2.26-7.06-5.48-10.14-4.17a4,4,0,0,0-1.76,5.63c1.14,2.07,3.86,3.09,6.07,3.42s6.31-.77,7.72-1.16c.43,1.1.87,2.19,1.24,3.28.23.74.51,1.44.71,2.21s.41,1.49.62,2.22c.34,1.44.71,2.91,1,4.31.21,1,.4,1.91.59,2.85-.48-1.06-1.47-3.11-1.57-3.27-1.59-2.53-6.16-6.49-9.4-5.66a4,4,0,0,0-2.59,5.3c.81,2.22,3.35,3.64,5.49,4.3,2.35.72,7.55.06,8.2,0,.32,1.56.61,3.07.86,4.51q.27,1.59.51,3.06h2.09c-.2-1.09-.42-2.23-.65-3.42-.31-1.59-.68-3.27-1.07-5a45,45,0,0,0,4.58-2.16c1.72,1.86,6.11,4,6.68,4.31-.6,1.47-1.2,2.89-1.78,4.23l-.9,2H680l.53-1.26c.61-1.49,1.24-3.1,1.86-4.75.63.13,5.79,1.18,8.19.64,2.18-.5,4.82-1.73,5.79-3.88a4,4,0,0,0-2.18-5.48c-3.18-1.07-8,2.54-9.8,4.95-.11.14-1.07,1.81-1.66,2.87.25-.68.5-1.33.76-2,.5-1.39,1-2.78,1.47-4.28.22-.73.44-1.47.67-2.21s.39-1.54.59-2.32c.44-1.81.78-3.67,1.09-5.55,1.21.44,5.54,1.94,7.77,1.78s5-1,6.32-2.95A4,4,0,0,0,700,428.5c-3-1.53-8.31,1.3-10.43,3.41-.13.13-1.48,1.81-2.2,2.75.17-1.13.36-2.26.5-3.41.41-3.32.72-6.69,1.05-10.06.1-1,.21-2.05.32-3.08.43.16,5.53,2.06,8,1.88,2.22-.15,5-1,6.31-2.95a4,4,0,0,0-1.33-5.75c-3-1.53-8.32,1.3-10.43,3.41-.16.16-2.1,2.58-2.57,3.22.24-2.26.5-4.51.85-6.72a68.68,68.68,0,0,1,1.93-8.85c.2.08,5.51,2.08,8.07,1.9,2.23-.15,5-1,6.32-2.95a4,4,0,0,0-1.33-5.75c-3-1.53-8.32,1.3-10.44,3.41-.16.16-2.25,2.77-2.59,3.28,0-.17.08-.35.13-.52a51.51,51.51,0,0,1,3.5-8.37c.77-1.49,1.58-2.87,2.4-4.2,1,.48,5.32,2.6,7.65,2.69s5.1-.41,6.6-2.24a4,4,0,0,0-.7-5.86c-2.79-1.85-8.4.37-10.74,2.24-.13.1-1.3,1.27-2.15,2.14.38-.59.76-1.21,1.13-1.77,1.4-2.11,2.82-4,4.08-5.58.73-.92,1.4-1.74,2-2.49,1.18,0,5.92-.17,8-1.14s4.33-2.72,4.82-5a4,4,0,0,0-3.31-4.88c-3.33-.36-7.29,4.2-8.51,6.93-.1.24-1.32,4.12-1.26,4.12h.07c-.63.72-1.3,1.49-2,2.35-1.3,1.6-2.76,3.42-4.21,5.51a70.17,70.17,0,0,0-4.37,6.95,52.81,52.81,0,0,0-3.73,8.4l0,.11c0-1,0-3.73-.05-3.94-.39-3-2.87-8.47-6.16-9.08a4,4,0,0,0-4.58,3.73c-.19,2.36,1.52,4.72,3.19,6.2,1.87,1.68,7.09,3.31,7.51,3.44a70.55,70.55,0,0,0-2.21,9.09c-.32,1.79-.58,3.61-.83,5.43,0-.85,0-1.61,0-1.71-.39-3-2.87-8.47-6.17-9.08a4,4,0,0,0-4.57,3.73c-.19,2.35,1.52,4.71,3.19,6.2s6.1,3,7.28,3.36l-.27,2.1c-.4,3.36-.78,6.71-1.26,10-.17,1.16-.38,2.29-.58,3.42,0-.75,0-1.38,0-1.48-.38-3-2.87-8.47-6.16-9.08a4,4,0,0,0-4.57,3.73c-.19,2.35,1.52,4.71,3.18,6.2s5.68,2.84,7.07,3.29c-.24,1.16-.48,2.31-.77,3.42-.22.75-.37,1.49-.63,2.23s-.47,1.48-.71,2.21c-.5,1.38-1,2.81-1.54,4.15-.35.93-.71,1.81-1.07,2.7.18-1.15.49-3.41.49-3.6a15.38,15.38,0,0,0-2.06-7.48,4.29,4.29,0,0,0-.06-.88,4,4,0,0,0-4.84-3.36c-3.24.86-5.29,6.54-5.44,9.53,0,.17.1,2.1.19,3.31-.16-.71-.31-1.39-.48-2.11-.34-1.44-.73-2.85-1.13-4.38-.22-.73-.44-1.47-.67-2.22s-.52-1.5-.78-2.26c-.64-1.75-1.37-3.49-2.15-5.23,1.25-.3,5.68-1.43,7.46-2.8s3.65-3.58,3.64-5.95a4,4,0,0,0-4.28-4.05c-3.33.36-6.22,5.66-6.83,8.59,0,.18-.23,2.33-.32,3.52-.47-1-.94-2.09-1.46-3.12-1.49-3-3.08-6-4.67-9l-1.43-2.74c.45-.11,5.74-1.34,7.74-2.86,1.77-1.36,3.65-3.59,3.63-5.95a4,4,0,0,0-4.28-4.06c-3.33.36-6.22,5.66-6.82,8.59,0,.22-.33,3.32-.36,4.11-1-2-2.07-4-3-6.07A69.29,69.29,0,0,1,649.5,403c.21,0,5.74-1.3,7.78-2.87,1.77-1.36,3.65-3.58,3.64-5.95a4,4,0,0,0-4.28-4.05c-3.33.36-6.22,5.66-6.83,8.59,0,.23-.34,3.56-.35,4.17-.06-.17-.13-.34-.18-.51a50.67,50.67,0,0,1-1.69-8.91c-.19-1.66-.27-3.26-.32-4.82,1.05-.13,5.87-.77,7.86-2s4-3.16,4.27-5.51a4,4,0,0,0-3.81-4.5c-3.35,0-6.8,4.94-7.73,7.79-.05.15-.38,1.78-.61,3,0-.7,0-1.43,0-2.1,0-2.53.16-4.85.32-6.9.1-1.17.21-2.22.33-3.21,1-.66,4.84-3.4,6-5.35s2.12-4.66,1.25-6.86a4,4,0,0,0-5.46-2.24c-3,1.54-3.75,7.52-3.26,10.47,0,.26,1.16,4.17,1.22,4.14l.05-.05c-.13,1-.26,2-.38,3.07-.2,2.06-.41,4.38-.47,6.92a67.92,67.92,0,0,0,.2,8.21,51.8,51.8,0,0,0,1.52,9.06l0,.11c-.53-.83-2.08-3.09-2.22-3.25-2-2.27-7.06-5.48-10.14-4.18a4,4,0,0,0-1.76,5.63C635.62,402.92,638.34,403.94,640.55,404.26Z" style="fill:#263238"></path><path d="M698,388.53s1.07-3.91,1.11-4.16c.41-3-.54-8.93-3.55-10.39a4,4,0,0,0-5.39,2.39c-.81,2.22.21,4.95,1.43,6.82C693,385.39,698,388.53,698,388.53Z" style="fill:#263238"></path></g><g id="freepik--Floor--inject-60"><line x1="30.26" y1="458.53" x2="725.24" y2="458.53" style="fill:none;stroke:#263238;stroke-miterlimit:10"></line></g><g id="freepik--Globe--inject-60"><g style="opacity:0.30000000000000004"><circle cx="380.96" cy="286.78" r="164.81" style="fill:none;stroke:#000;stroke-linecap:round;stroke-linejoin:round"></circle><ellipse cx="380.96" cy="285.55" rx="107.94" ry="164.81" style="fill:none;stroke:#000;stroke-linecap:round;stroke-linejoin:round"></ellipse><ellipse cx="380.96" cy="285.55" rx="37.71" ry="164.81" style="fill:none;stroke:#000;stroke-linecap:round;stroke-linejoin:round"></ellipse><line x1="295.81" y1="145.83" x2="466.41" y2="145.83" style="fill:none;stroke:#000;stroke-linecap:round;stroke-linejoin:round"></line><line x1="232.86" y1="215.93" x2="529.35" y2="215.93" style="fill:none;stroke:#000;stroke-linecap:round;stroke-linejoin:round"></line><line x1="216.83" y1="286.02" x2="545.38" y2="286.02" style="fill:none;stroke:#000;stroke-linecap:round;stroke-linejoin:round"></line><line x1="231.46" y1="356.11" x2="530.75" y2="356.11" style="fill:none;stroke:#000;stroke-linecap:round;stroke-linejoin:round"></line><line x1="293.65" y1="426.21" x2="468.56" y2="426.21" style="fill:none;stroke:#000;stroke-linecap:round;stroke-linejoin:round"></line></g></g><g id="freepik--device-2--inject-60"><path d="M705.86,162.38V122.23a3.08,3.08,0,0,0-3.08-3.08H647.5a3.08,3.08,0,0,0-3.08,3.08v40.15h-3.56v1.31a1.7,1.7,0,0,0,1.7,1.7h65.16a1.69,1.69,0,0,0,1.69-1.7v-1.31Z" style="fill:#263238;stroke:#263238;stroke-linecap:round;stroke-linejoin:round"></path><path d="M650.83,118H703.9a4.19,4.19,0,0,1,4.19,4.19v39.14a0,0,0,0,1,0,0H646.64a0,0,0,0,1,0,0V122.23A4.19,4.19,0,0,1,650.83,118Z" style="fill:#fff;stroke:#263238;stroke-linecap:round;stroke-linejoin:round"></path><path d="M652,119.57h50.76a4.19,4.19,0,0,1,4.19,4.19v36.08a0,0,0,0,1,0,0H647.79a0,0,0,0,1,0,0V123.76A4.19,4.19,0,0,1,652,119.57Z" style="fill:#A892E3;stroke:#263238;stroke-linecap:round;stroke-linejoin:round"></path><path d="M643.09,161.27h68.55a0,0,0,0,1,0,0V162a2.3,2.3,0,0,1-2.3,2.3H645.39a2.3,2.3,0,0,1-2.3-2.3v-.71A0,0,0,0,1,643.09,161.27Z" style="fill:#fff;stroke:#263238;stroke-linecap:round;stroke-linejoin:round"></path></g><g id="freepik--device-1--inject-60"><rect x="546.85" y="42.29" width="55.21" height="99.81" rx="6.25" style="fill:#263238;stroke:#263238;stroke-linecap:round;stroke-linejoin:round"></rect><rect x="551.23" y="37.91" width="55.21" height="99.81" rx="6.25" style="fill:#fff;stroke:#263238;stroke-linecap:round;stroke-linejoin:round"></rect><path d="M606.44,50.65V45.46a7.55,7.55,0,0,0-7.55-7.55H558.78a7.55,7.55,0,0,0-7.55,7.55v5.19Z" style="fill:#A892E3;stroke:#263238;stroke-linecap:round;stroke-linejoin:round"></path><path d="M551.23,122.85v7.32a7.55,7.55,0,0,0,7.55,7.55h40.11a7.55,7.55,0,0,0,7.55-7.55v-7.32Z" style="fill:#A892E3;stroke:#263238;stroke-linecap:round;stroke-linejoin:round"></path></g><g id="freepik--wifi-icon--inject-60"><path d="M459.66,52.05a30.43,30.43,0,0,0-15.76,4.33,58.64,58.64,0,0,0-5.65,4.16,3.68,3.68,0,0,1-3.51.84,3.2,3.2,0,0,1-1.81-4.71,7.2,7.2,0,0,1,1.4-1.57,37.26,37.26,0,0,1,21.4-9.48c11.18-1.13,20.91,2.28,29.34,9.6A4,4,0,0,1,486.75,58a3.26,3.26,0,0,1-5.19,3c-.66-.46-1.23-1-1.86-1.55a31.08,31.08,0,0,0-19.2-7.3Z" style="fill:#263238"></path><path d="M476.15,69.9a3.63,3.63,0,0,1-2.58-1.1,20,20,0,0,0-26.75-1c-.56.47-1.1,1-1.69,1.39a3.28,3.28,0,0,1-4.44-.47,3.23,3.23,0,0,1,.1-4.4,24.58,24.58,0,0,1,9.5-6.14,26.2,26.2,0,0,1,20.72.85,24.93,24.93,0,0,1,7.4,5.17,3.26,3.26,0,0,1,.71,3.7A3.14,3.14,0,0,1,476.15,69.9Z" style="fill:#263238"></path><path d="M459.54,67.61a15.58,15.58,0,0,1,11.5,5,3.3,3.3,0,0,1,.13,4.52,3.37,3.37,0,0,1-4.63.29A17.19,17.19,0,0,0,462.88,75c-3.48-1.42-6.67-.63-9.44,1.86A4,4,0,0,1,450,78.16,3.22,3.22,0,0,1,448,73a13.7,13.7,0,0,1,5.61-4.1A15.75,15.75,0,0,1,459.54,67.61Z" style="fill:#263238"></path><path d="M459.69,87.12a3.93,3.93,0,0,1-4-4,4,4,0,0,1,3.94-4,4,4,0,1,1,.1,8Z" style="fill:#263238"></path></g><g id="freepik--Comments--inject-60"><rect x="647.62" y="232.61" width="77.53" height="31.53" rx="7.25" style="fill:#263238;stroke:#263238;stroke-linecap:round;stroke-linejoin:round"></rect><rect x="649.54" y="230.41" width="77.53" height="31.53" rx="7.25" style="fill:#fff;stroke:#263238;stroke-linecap:round;stroke-linejoin:round"></rect><path d="M669,241.36a7.22,7.22,0,1,1-7.22-7.22A7.21,7.21,0,0,1,669,241.36Z" style="fill:#A892E3;stroke:#263238;stroke-linecap:round;stroke-linejoin:round"></path><line x1="675.42" y1="238.58" x2="718.41" y2="238.58" style="fill:none;stroke:#263238;stroke-linecap:round;stroke-linejoin:round"></line><line x1="675.42" y1="245.8" x2="718.41" y2="245.8" style="fill:none;stroke:#263238;stroke-linecap:round;stroke-linejoin:round"></line><line x1="675.42" y1="253.01" x2="718.41" y2="253.01" style="fill:none;stroke:#263238;stroke-linecap:round;stroke-linejoin:round"></line><rect x="647.62" y="278.02" width="77.53" height="31.53" rx="7.25" style="fill:#263238;stroke:#263238;stroke-linecap:round;stroke-linejoin:round"></rect><rect x="649.54" y="275.83" width="77.53" height="31.53" rx="7.25" style="fill:#fff;stroke:#263238;stroke-linecap:round;stroke-linejoin:round"></rect><circle cx="661.82" cy="286.77" r="7.21" style="fill:#A892E3;stroke:#263238;stroke-linecap:round;stroke-linejoin:round"></circle><line x1="675.42" y1="284" x2="718.41" y2="284" style="fill:none;stroke:#263238;stroke-linecap:round;stroke-linejoin:round"></line><line x1="675.42" y1="291.21" x2="718.41" y2="291.21" style="fill:none;stroke:#263238;stroke-linecap:round;stroke-linejoin:round"></line><line x1="675.42" y1="298.42" x2="718.41" y2="298.42" style="fill:none;stroke:#263238;stroke-linecap:round;stroke-linejoin:round"></line></g><g id="freepik--Email--inject-60"><rect x="272.44" y="24.6" width="70.07" height="44.68" style="fill:#263238;stroke:#263238;stroke-miterlimit:10"></rect><rect x="276.13" y="20.9" width="70.07" height="44.68" style="fill:#fff;stroke:#263238;stroke-linecap:round;stroke-linejoin:round"></rect><polyline points="276.13 20.9 311.17 43.24 346.2 20.9" style="fill:none;stroke:#263238;stroke-linecap:round;stroke-linejoin:round"></polyline><circle cx="342.51" cy="24.6" r="9.65" style="fill:#263238;stroke:#263238;stroke-miterlimit:10"></circle><path d="M342.45,30a3.24,3.24,0,0,1-1.85-.43,2.11,2.11,0,0,1-.84-1.21,6.67,6.67,0,0,1-.22-1.82h2.21a5.79,5.79,0,0,0,.07,1,1,1,0,0,0,.25.57.68.68,0,0,0,.53.16.55.55,0,0,0,.51-.29,1.88,1.88,0,0,0,.18-.79c0-.34,0-.75,0-1.24a7,7,0,0,0-.06-1,1.64,1.64,0,0,0-.25-.68.65.65,0,0,0-.56-.26.73.73,0,0,0-.56.25,1.58,1.58,0,0,0-.32.77h-2l.2-6.41H345v1.92h-3.35l-.12,2.29a1,1,0,0,1,.52-.33,3.16,3.16,0,0,1,.82-.19,2.07,2.07,0,0,1,1.44.31,2.45,2.45,0,0,1,.88,1.23,6.21,6.21,0,0,1,.29,2,10.49,10.49,0,0,1-.11,1.64,3.5,3.5,0,0,1-.42,1.29,2.15,2.15,0,0,1-.92.84A3.59,3.59,0,0,1,342.45,30Z" style="fill:#A892E3"></path></g><g id="freepik--speech-bubble--inject-60"><path d="M203.19,185.65h-36.4a5.28,5.28,0,0,0-5.29,5.28v24.83a5.29,5.29,0,0,0,5.29,5.29h5l-6.91,16.33,15.81-16.33h22.47a5.28,5.28,0,0,0,5.28-5.29V190.93A5.27,5.27,0,0,0,203.19,185.65Z" style="fill:#263238;stroke:#263238;stroke-linecap:round;stroke-linejoin:round"></path><path d="M206.87,184.27h-36.4a5.27,5.27,0,0,0-5.28,5.28v24.83a5.27,5.27,0,0,0,5.28,5.28h5L168.59,236l15.82-16.34h22.46a5.28,5.28,0,0,0,5.29-5.28V189.55A5.28,5.28,0,0,0,206.87,184.27Z" style="fill:#fff;stroke:#263238;stroke-linecap:round;stroke-linejoin:round"></path><path d="M199.5,202l-1.34,1.34L189,212.46,178.57,202a6.45,6.45,0,0,1,9.13-9.12l1.34,1.34,1.33-1.34A6.45,6.45,0,0,1,199.5,202Z" style="fill:#A892E3;stroke:#263238;stroke-linecap:round;stroke-linejoin:round"></path></g><g id="freepik--Icons--inject-60"><path d="M146.85,105.49l-7,0a26,26,0,0,1-16.34-6l-.8-.66a.49.49,0,0,1-.18-.42l1.87-26.17a.5.5,0,0,1,.33-.44,44.77,44.77,0,0,0,10-5.22c1.82-1.41,6-5.35,5.12-11.6-.32-2.37-.16-3.88.5-4.63a1.51,1.51,0,0,1,1.18-.53c.91,0,2.07.7,3.44,2.07,2.92,2.92,3.13,6.4,3.09,9.44A27.72,27.72,0,0,1,145.67,71c3.35.12,15.07.61,16.8,1.35a6.32,6.32,0,0,1,2.79,3.6,5.62,5.62,0,0,1,.13,4.29,8.55,8.55,0,0,1-2.21,2.86,5.05,5.05,0,0,1,.07,4.35,15.14,15.14,0,0,1-1.94,3,5.66,5.66,0,0,1,.91,4.35,8.62,8.62,0,0,1-3.08,4.33,3.72,3.72,0,0,1-.74,3.33,6.84,6.84,0,0,1-4.86,2.87A61.9,61.9,0,0,1,146.85,105.49Z" style="fill:#fff"></path><path d="M141.55,50.33c.82,0,1.93.76,3.09,1.92,2.67,2.67,3,5.78,2.94,9.08-.06,4.75-2.67,10.15-2.67,10.15s15.49.54,17.36,1.34S166,77.89,164.94,80a7.46,7.46,0,0,1-2.4,2.94,4.71,4.71,0,0,1,.26,4.27,13.2,13.2,0,0,1-2.13,3.2,5.32,5.32,0,0,1,1.06,4.28c-.53,2.4-3.2,4.27-3.2,4.27s.8,1.34-.54,3.21a6.33,6.33,0,0,1-4.54,2.67c-.53.09-3.23.12-6.59.12l-7,0a25.48,25.48,0,0,1-16-5.84l-.8-.66,1.87-26.18A45.15,45.15,0,0,0,135.06,67c2.65-2,6.11-6.19,5.31-12.07-.46-3.32.11-4.59,1.18-4.59m0-1h0A2,2,0,0,0,140,50c-.77.88-1,2.48-.61,5,.81,6-3.18,9.78-4.94,11.13a44,44,0,0,1-9.91,5.15,1,1,0,0,0-.65.87L122,98.39a1,1,0,0,0,.36.84l.8.66A26.52,26.52,0,0,0,139.82,106l7,0a62.35,62.35,0,0,0,6.76-.14,7.32,7.32,0,0,0,5.19-3.07,4.45,4.45,0,0,0,.89-3.44,8.82,8.82,0,0,0,3-4.41,6.08,6.08,0,0,0-.79-4.42,16.22,16.22,0,0,0,1.78-2.82,5.4,5.4,0,0,0,.08-4.43,9.29,9.29,0,0,0,2.05-2.78,6.11,6.11,0,0,0-.11-4.69c-.54-1.48-1.63-3.28-3.06-3.89-1.69-.73-11.93-1.2-16.25-1.36a27.27,27.27,0,0,0,2.17-9.2c0-3.14-.18-6.74-3.23-9.8-1.49-1.49-2.74-2.21-3.8-2.21Z" style="fill:#263238"></path><rect x="102.97" y="70.41" width="22.17" height="33.12" style="fill:#263238;stroke:#263238;stroke-linecap:round;stroke-linejoin:round"></rect><path d="M91.38,162.71l-1.59,1.6L78.93,175.17,66.47,162.71a7.68,7.68,0,1,1,10.86-10.86l1.6,1.6,1.58-1.6a7.68,7.68,0,0,1,10.87,10.86Z" style="fill:#263238;stroke:#263238;stroke-linecap:round;stroke-linejoin:round"></path><path d="M210.8,138.62l-2.26,2.26-15.42,15.41-17.67-17.67a10.9,10.9,0,0,1,15.41-15.41l2.26,2.26,2.26-2.26a10.9,10.9,0,1,1,15.42,15.41Z" style="fill:#A892E3;stroke:#263238;stroke-linecap:round;stroke-linejoin:round"></path></g><g id="freepik--character-3--inject-60"><path d="M630.76,222.13a40.14,40.14,0,0,0,8.93-10.07c3.44-5.86,6.37-12.36,5.22-12.49s-26.76-2.93-36.58-2.81-8.54-.38-8.54-.38V201s12.49,3.44,15.68,4.08S628.09,208,628.09,208l-3.19,2.55Z" style="fill:#fff;stroke:#263238;stroke-linecap:round;stroke-linejoin:round"></path><path d="M628.09,208a44.43,44.43,0,0,0,7.64-2.29" style="fill:#fff;stroke:#263238;stroke-linecap:round;stroke-linejoin:round"></path><path d="M572,185.36s-9.3,4.14-11,11.88-4.31,20-8.1,26.52-17.22,8.1-17.73,16S548.78,253.21,550,256s-9.48,7.23-9.13,15.32,7.06,10.33,11,10,12-4.13,13.09-1.55,4.82,10,14.29,5.51,9.64-11.36,14.12-9.81,16,.68,14.81-13.78,2.76-26.18.35-35.82-6.2-9.47-8.1-15,3.45-8.61.35-17.74-13.78-10.5-17.57-10.33A33.18,33.18,0,0,0,572,185.36Z" style="fill:#263238;stroke:#263238;stroke-linecap:round;stroke-linejoin:round"></path><path d="M607.12,347.81s.25,14.85-1.48,24.75-3.71,10.57-3.46,23.19S599,438.06,599,438.06s-7.42,8.91-6.19,10.4,6.44,3,8.66,5.93,4,5.45,10.64,7.18,7.43.25,5.94-1.49-7.42-13.11-8.91-17.32a31.84,31.84,0,0,1-2-7.42c0-.74,16.33-55.36,18.07-62s3-25,3-25Z" style="fill:#fff;stroke:#263238;stroke-linecap:round;stroke-linejoin:round"></path><path d="M614.36,453.88l-4,.76a33,33,0,0,1-9.9-10.39c-1.15-1.85-2-3.37-2.75-4.61-2.06,2.63-5.83,7.72-4.92,8.82,1.24,1.48,6.44,3,8.66,5.93s4,5.45,10.64,7.18,7.43.25,5.94-1.49A50.72,50.72,0,0,1,614.36,453.88Z" style="fill:#263238;stroke:#263238;stroke-linecap:round;stroke-linejoin:round"></path><path d="M584.86,356v8.66s-11.14,7.67-15.1,15.34-29,46.76-29.94,48S525,446.34,527.7,452.72s6.93,2.72,9.9-1,7.91-21.28,7.91-21.28,43.06-45.28,49.74-51.21,10.64-10.15,11.87-14.35a58.65,58.65,0,0,0,1.74-8.17S590.79,358,584.86,356Z" style="fill:#fff;stroke:#263238;stroke-linecap:round;stroke-linejoin:round"></path><path d="M530.92,445.79l3.82-11c-4,5.87-8.71,14-7,17.91,2.72,6.44,6.93,2.72,9.9-1,1.33-1.66,3.06-6.11,4.56-10.51l-4.81,7.3Z" style="fill:#263238;stroke:#263238;stroke-linecap:round;stroke-linejoin:round"></path><path d="M587.17,270.69l.81,7.67s-8.54,10.67-10.32,28.81-1.24,48.56-1.24,48.56,4.09,3.38,16.72,4.45a75.57,75.57,0,0,0,22.05-1.25l1.78-.35.36-4.27a40,40,0,0,0,11-.71,44,44,0,0,0,11.92-4.09s-.71-29.35-5.69-46.07a223,223,0,0,0-12.1-31.13l-2.13-9.42S599.17,269.78,587.17,270.69Z" style="fill:#A892E3;stroke:#263238;stroke-linecap:round;stroke-linejoin:round"></path><path d="M615,274.8s1.78,11.92,2.32,13.88S615,293,615,293s3.92,35.21,2.14,57.27" style="fill:none;stroke:#263238;stroke-linecap:round;stroke-linejoin:round"></path><line x1="611.28" y1="271.25" x2="613.59" y2="283.34" style="fill:none;stroke:#263238;stroke-linecap:round;stroke-linejoin:round"></line><path d="M620.53,275s2.84,6.94,5,19.21" style="fill:none;stroke:#263238;stroke-linecap:round;stroke-linejoin:round"></path><path d="M599.54,283.52s-3.91,7.29-3,19.56" style="fill:none;stroke:#263238;stroke-linecap:round;stroke-linejoin:round"></path><path d="M601.32,284.59s-.89,14.05-1.25,28.1" style="fill:none;stroke:#263238;stroke-linecap:round;stroke-linejoin:round"></path><line x1="596.87" y1="272.14" x2="597.76" y2="278.36" style="fill:none;stroke:#263238;stroke-linecap:round;stroke-linejoin:round"></line><line x1="599.01" y1="271.96" x2="599.89" y2="277.65" style="fill:none;stroke:#263238;stroke-linecap:round;stroke-linejoin:round"></line><line x1="616.61" y1="266.62" x2="617.5" y2="271.78" style="fill:none;stroke:#263238;stroke-linecap:round;stroke-linejoin:round"></line><line x1="618.93" y1="265.56" x2="619.99" y2="271.07" style="fill:none;stroke:#263238;stroke-linecap:round;stroke-linejoin:round"></line><path d="M600.68,227.35s2-1.52,5-3.95,22.8-15.87,22.8-15.87l9.93,21.77-19.47,9.91s5.1,20,4.59,22.69-4.46,3.69-13.38,6.62A101.18,101.18,0,0,1,585.26,273c-4.2,0-3.19-.25-5.48-5.22s-11.34-25.11-8.41-33.14,10.38-6.34,12.49-5.74S590,230.8,590,230.8Z" style="fill:#fff;stroke:#263238;stroke-linecap:round;stroke-linejoin:round"></path><path d="M580.48,221.25s3.69,7.84,5.27,10,1,3.86,6.73,3.64,9.24-3.92,8.45-6.18a115.77,115.77,0,0,1-3.4-14.27s-.56,4.87-4.41,7.47S580.48,221.25,580.48,221.25Z" style="fill:#fff;stroke:#263238;stroke-linecap:round;stroke-linejoin:round"></path><path d="M582.21,193.12s.25,3.35-3.47,11.9-5.82,9.29-5.82,9.29,4.7,8.18,9.29,10.28,11.52,2.85,14.13.13,4.21-8.8,4.21-11.65-3.1-14-3.1-14S588.41,199.19,582.21,193.12Z" style="fill:#fff;stroke:#263238;stroke-linecap:round;stroke-linejoin:round"></path><path d="M580.14,210.3s2.73-2.18,5-1.5" style="fill:none;stroke:#263238;stroke-linecap:round;stroke-linejoin:round"></path><path d="M591.59,210.3s-.13,1.5-1.23,1.91" style="fill:none;stroke:#263238;stroke-linecap:round;stroke-linejoin:round"></path><path d="M592.14,216.16s-4,1.5-7.23-.27c0,0,1,4.77,3.41,4.22S592.14,216.16,592.14,216.16Z" style="fill:none;stroke:#263238;stroke-linecap:round;stroke-linejoin:round"></path><path d="M578.74,205a5.83,5.83,0,0,1,4.67-1.81" style="fill:none;stroke:#263238;stroke-linecap:round;stroke-linejoin:round"></path><path d="M589.41,201.57s2.18-3.82,5.86-1.23" style="fill:none;stroke:#263238;stroke-linecap:round;stroke-linejoin:round"></path><path d="M594.19,204.53c.28.73.14,1.47-.31,1.65s-1.06-.28-1.34-1-.15-1.48.31-1.65S593.91,203.79,594.19,204.53Z" style="fill:#263238"></path><path d="M572.92,214.31s-4-.88-2.73,2.53,6.95,3.82,6.95,3.82Z" style="fill:#fff;stroke:#263238;stroke-linecap:round;stroke-linejoin:round"></path><path d="M598.68,202.66s1.5-1.91,1.77.82a17.86,17.86,0,0,1-.41,5.45Z" style="fill:none;stroke:#263238;stroke-linecap:round;stroke-linejoin:round"></path><polyline points="571.62 242.14 587.17 270.69 601.45 248.51 584.24 231.05" style="fill:#fff;stroke:#263238;stroke-linecap:round;stroke-linejoin:round"></polyline><rect x="612.03" y="188.1" width="14.91" height="27.15" rx="1.55" transform="translate(-30.05 252.11) rotate(-22.47)" style="fill:#A892E3;stroke:#263238;stroke-linecap:round;stroke-linejoin:round"></rect><rect x="610.79" y="191.92" width="2.56" height="5.76" transform="translate(-27.98 248.75) rotate(-22.47)" style="fill:#263238"></rect><path d="M601.45,248.51s11.85-16.82,12.87-20-1.4-15.8-1.78-17.21,5.73-6.24,7.39-7.26,2.17-.51,1.66.38-4.21,4-4.72,4.85a8.66,8.66,0,0,0-.64,2.8s2.94-3.44,4.08-4.08,4.72-2.68,5.1-2.17l.13,1s1.53-.12,1.4.9-2,2.8-2,2.8l-1.27,1.66s2.93-2.17,3.18-1.28-3.31,4-3.82,4.72a9.2,9.2,0,0,0-.89,2,22,22,0,0,1-.13,7.14,7,7,0,0,1-3.44,4.07l-8.92,25.62s-5.61,11-6.76,12.62-2.68,1-3.57.51-6.75-5.35-6.75-5.35Z" style="fill:#fff;stroke:#263238;stroke-linecap:round;stroke-linejoin:round"></path></g><g id="freepik--character-2--inject-60"><path d="M414.81,362.53s24.74,8.62,35.48,9.25,33.94-9.67,38.19-10.36,4.62,2.77,3.56,5.78-32.76,25-37.63,26.45-33-21.44-37.15-25.16S412.76,363,414.81,362.53Z" style="fill:#9e9e9e;stroke:#263238;stroke-linecap:round;stroke-linejoin:round"></path><path d="M426.28,389.37s-5.19,1-9.13-.7-7.45-4.33-13.08-2.26-9.15,6.6-7.57,9.48,5.23,4.39,12.46,5,10-.31,11.6-.14,6.31.39,6.31.39S430.46,391.74,426.28,389.37Z" style="fill:#fff;stroke:#263238;stroke-linecap:round;stroke-linejoin:round"></path><path d="M441.9,388.84s29.53-14,38-20.34,14.29-7.78,19.54-4.12,6.24,13.63.92,17.89-27.48,12.94-41.29,16.41-15.52,5.87-18.9,5.65-6.21-2.31-7.39-1.79-4.57,1.75-6.11,1.1-4.54-2.77-3.19-9.09,3.64-5.09,5.06-4.77,2.84-.82,4.45-.8,4.16-2.45,5.54-1.81S441.9,388.84,441.9,388.84Z" style="fill:#9e9e9e;stroke:#263238;stroke-linecap:round;stroke-linejoin:round"></path><path d="M477.47,389.17s5.42-3.59,7.51-3.34,2.85,2.87,5.67,2.58,4.14-2.82,10,.2,7.51,6.51,7.15,9.08-5,4-8.75,4.26-10.69-2-13.36-1.76-5,.69-5,.69,1.77-5.74.23-8.27A9.09,9.09,0,0,0,477.47,389.17Z" style="fill:#fff;stroke:#263238;stroke-linecap:round;stroke-linejoin:round"></path><path d="M464.11,388.16S434.65,374,426.22,367.61s-14.24-7.86-19.51-4.23-6.32,13.6-1,17.88,27.41,13.1,41.19,16.64,15.5,6,18.87,5.76,6.22-2.27,7.41-1.75,4.55,1.78,6.1,1.13,4.56-2.75,3.24-9.07-3.61-5.11-5-4.8-2.84-.83-4.45-.82-4.14-2.47-5.53-1.84S464.11,388.16,464.11,388.16Z" style="fill:#9e9e9e;stroke:#263238;stroke-linecap:round;stroke-linejoin:round"></path><path d="M439.05,372l32.75-.49-3.4-79.56s-7.49-6.32-22-3.09c0,0-1.5.16-3.86,16.37S439.05,372,439.05,372Z" style="fill:#A892E3;stroke:#263238;stroke-linecap:round;stroke-linejoin:round"></path><path d="M446.64,291s-3.09,19.64-3.19,36.33.21,44.68.21,44.68l-16.4.25-1.82-16.54-27.05.41s-.2-5.37,3.53-13.47,10.88-28.52,11.87-32.85.57-8.53,2.54-9.26S441,291.19,441,291.19,445.77,287.85,446.64,291Z" style="fill:#263238;stroke:#263238;stroke-linecap:round;stroke-linejoin:round"></path><path d="M443.78,288.83s-4.14,10.08-5.22,15.7-1.37,9.47.94,8.15,4.62-3,4.62-3l2.52-18.7S446.88,287.63,443.78,288.83Z" style="fill:#fff;stroke:#263238;stroke-linecap:round;stroke-linejoin:round"></path><line x1="426.97" y1="348.33" x2="422.1" y2="311.77" style="fill:#fff;stroke:#263238;stroke-linecap:round;stroke-linejoin:round"></line><path d="M446.51,294s-1.34,11.36,2.86,17.66,9.43,2.24,10.87-1.89,2.67-9.32,2.67-9.32S455.74,304.64,446.51,294Z" style="fill:#fff;stroke:#263238;stroke-linecap:round;stroke-linejoin:round"></path><path d="M460.07,290.78s3.67,19.55,4.28,36.22,1.14,44.67,1.14,44.67l13.05-.19,1.8-16.6,29.92-.45s0-5.37-3.93-13.36-11.75-28.17-12.86-32.47-.83-8.51-2.82-9.18-25-8.6-25-8.6S460.84,287.62,460.07,290.78Z" style="fill:#263238;stroke:#263238;stroke-linecap:round;stroke-linejoin:round"></path><path d="M462.86,288.54s4.44,9.95,5.69,15.53,1.66,9.43-.69,8.18-4.71-2.84-4.71-2.84l-3.08-18.63S459.73,287.44,462.86,288.54Z" style="fill:#fff;stroke:#263238;stroke-linecap:round;stroke-linejoin:round"></path><line x1="481.46" y1="347.51" x2="485.22" y2="310.82" style="fill:#fff;stroke:#263238;stroke-linecap:round;stroke-linejoin:round"></line><path d="M507.33,348.77c-3.11-3.38-9.55-7-16.82-1.66S471,362.24,471,362.24s-9.06-2.5-9.71-1.66-5.39,8.16-5.71,9.32,4,2.08,5.71,2.06,5-2.72,5-2.72a4.93,4.93,0,0,0,2.84.13c1.84-.36,5.31-2.56,5.31-2.56s35.29-9,35.82-10.95S510.43,352.15,507.33,348.77Z" style="fill:#fff;stroke:#263238;stroke-linecap:round;stroke-linejoin:round"></path><path d="M401.2,350.37c3-3.47,9.33-7.26,16.76-2.17s20,14.54,20,14.54,9-2.77,9.66-2,5.63,8,6,9.15-4,2.2-5.65,2.23-5.05-2.56-5.05-2.56a4.94,4.94,0,0,1-2.83.2c-1.84-.3-5.38-2.39-5.38-2.39s-35.55-8-36.14-9.87S398.2,353.84,401.2,350.37Z" style="fill:#fff;stroke:#263238;stroke-linecap:round;stroke-linejoin:round"></path><path d="M444,280.8s-2.3-2.23-2.94,1.27a6.79,6.79,0,0,0,2.72,6.76l1.05.51s.43,5.05,3.26,8.15,5.52,6.72,10.05,6.48,11.59-7.15,11.9-9.43,3.45-14,3.45-14,0-9.43-8.75-13.66-15.7.59-17.75,3.76S444,280.8,444,280.8Z" style="fill:#fff;stroke:#263238;stroke-linecap:round;stroke-linejoin:round"></path><path d="M457.12,288.75a4.81,4.81,0,0,1-4.55-1.23" style="fill:none;stroke:#263238;stroke-linecap:round;stroke-linejoin:round"></path><path d="M465.12,289.6a4,4,0,0,0,4.21-.39" style="fill:none;stroke:#263238;stroke-linecap:round;stroke-linejoin:round"></path><path d="M451.89,285.37a8.82,8.82,0,0,1,7.14,1.3" style="fill:none;stroke:#263238;stroke-linecap:round;stroke-linejoin:round"></path><path d="M464.65,286.8s3.1-2.21,5.5-.41" style="fill:none;stroke:#263238;stroke-linecap:round;stroke-linejoin:round"></path><path d="M462.29,294.93s-.18,2.6-1.47,2.94-2.93-1.36-2.93-1.36" style="fill:none;stroke:#263238;stroke-linecap:round;stroke-linejoin:round"></path><path d="M454,296.68s.79,2.36,4.26,3.06" style="fill:none;stroke:#263238;stroke-linecap:round;stroke-linejoin:round"></path><path d="M445.25,282.18a7.58,7.58,0,0,1,2.88-5.63,41,41,0,0,0,4.82-4.44,6.52,6.52,0,0,0,3.72,3.79c2.81,1,6.11.43,7.18,1.46s4.48,7.61,8.84,7.89,6.6-2.36,7.3-2.38,3.83-.58,4-3.2-3-3.44-2.53-5.89,2.17-6.84.21-9.43-5.43-1-7.72-2.33-7.09-7.22-13.55-7.65a10.17,10.17,0,0,0-9.35,4.86s-8.67,3.79-9.13,7.81,1.48,5.92,1.51,8-.27,5.06.61,5.75A4.63,4.63,0,0,1,445.25,282.18Z" style="fill:#263238;stroke:#263238;stroke-linecap:round;stroke-linejoin:round"></path><polygon points="480.07 371.93 424.76 372.76 422.79 338.54 481.01 337.66 480.07 371.93" style="fill:#fff;stroke:#263238;stroke-linecap:round;stroke-linejoin:round"></polygon></g><g id="freepik--character-1--inject-60"><path d="M150.71,214.62s4.89-2.53,3.08-9.77-9.42-13.76-15.57-15.75-12.13-2-19.74,3.44-13.39,23.53-10.13,31.32a26.41,26.41,0,0,0,8.87,11.4s-4.89,1.27-4.17,6,5.25,2.53,10.14.36,4.53-9.6,3.8-14.67-1.08-10.13-1.08-10.13,4-3.08,7.24-5.8a15,15,0,0,0,4.34-5.61l8.51,8.87S146.18,216.8,150.71,214.62Z" style="fill:#263238;stroke:#263238;stroke-linecap:round;stroke-linejoin:round"></path><path d="M119.83,413l4.94,31.28s-8,8.47-7.53,15.05,6.45,4.19,8.1,1.84,8-10,6.95-17.13c-.43-2.87.24-32.22.24-32.22Z" style="fill:#fff;stroke:#263238;stroke-linecap:round;stroke-linejoin:round"></path><path d="M131,448.68a29.84,29.84,0,0,1-5.36,7.75l-6.41-.89.6-2.54a26.22,26.22,0,0,1,1.35-4.15c-2.06,3-4.19,7-3.94,10.51.47,6.59,6.45,4.19,8.1,1.84,1.53-2.19,7.14-8.91,7.07-15.58C132,446.47,131.54,447.47,131,448.68Z" style="fill:#A892E3;stroke:#263238;stroke-linecap:round;stroke-linejoin:round"></path><path d="M163.33,413.82l15.49,31.44s1.49,8.64,4.17,13.85,9.39,6.56,10,1.94-1.34-8.64-4.47-12.52-4.47-5.66-4.47-5.66l-6.55-30.39Z" style="fill:#fff;stroke:#263238;stroke-linecap:round;stroke-linejoin:round"></path><path d="M193,461.05c.57-4.38-1.14-8.21-4-11.9l.11.43,1,5.81s-4.62,2.38-6.26,1.19c-1.3-.95-3.37-5.31-4.15-7a46.84,46.84,0,0,0,3.26,9.57C185.67,464.32,192.38,465.67,193,461.05Z" style="fill:#A892E3;stroke:#263238;stroke-linecap:round;stroke-linejoin:round"></path><path d="M118,285.58s-9,22.29-10.36,39.69,6.12,52.29,6.12,52.29,0,20.15-.21,30.73-1,9.44-1,9.44l21.64-.23s3-30.53,2.11-42.52-.94-48.69-.94-48.69h2.58s11.76,54.33,12.23,57.15,7.77,32.64,7.77,32.64l24.93-1.17a88.72,88.72,0,0,0-5.32-20.73c-4.47-11.76-5.5-21.09-6-22.5S170.39,349,165.45,326a192.45,192.45,0,0,0-14.19-41.42A84.2,84.2,0,0,1,118,285.58Z" style="fill:#fff;stroke:#263238;stroke-linecap:round;stroke-linejoin:round"></path><path d="M171.57,371.68c-.47-1.41-1.18-22.65-6.12-45.7A128.4,128.4,0,0,0,156,297.9c-15.69,6.53-33.42,4-42.28,2.06-2.53,6.72-5.41,16.07-6.16,25.31-1.41,17.41,6.12,52.29,6.12,52.29s0,20.15-.21,30.73-1,9.44-1,9.44l21.64-.23s3-30.53,2.11-42.52-.94-48.69-.94-48.69h2.58s11.76,54.33,12.23,57.15,7.77,32.64,7.77,32.64l24.93-1.17a88.72,88.72,0,0,0-5.32-20.73C173.07,382.42,172,373.09,171.57,371.68Z" style="fill:#263238;stroke:#263238;stroke-linecap:round;stroke-linejoin:round"></path><polyline points="108.53 337.34 122.64 337.58 123.35 343.69 109.94 343.46" style="fill:none;stroke:#fff;stroke-miterlimit:10"></polyline><path d="M123.11,346.05s.71,16.7.48,18.58-9.41,2.35-9.41,2.35" style="fill:none;stroke:#fff;stroke-miterlimit:10"></path><polyline points="167.27 337.34 153.21 337.58 153.86 343.69 167.22 343.46" style="fill:none;stroke:#fff;stroke-miterlimit:10"></polyline><path d="M154.62,346.05s3,16.7,3.65,18.58,9.92,2.35,9.92,2.35" style="fill:none;stroke:#fff;stroke-miterlimit:10"></path><polyline points="134.41 303.64 135.11 308.81 137.93 309.05 138.87 320.1" style="fill:none;stroke:#fff;stroke-miterlimit:10"></polyline><path d="M126,236.67a23.81,23.81,0,0,0-7,1c-2.82,1-8.34,2.37-10.54,6.09-3.71,6.28,4.79,26.54,6.14,31.45S118,285.58,118,285.58s11.49,3.38,20.79,1.86,12.52-2.88,12.52-2.88,1.9-7,3.93-19.78c1.05-6.67,5.61-14.25,4.91-19.46-1.21-9.09-17-8.12-18.82-7.95C139.86,237.5,130.4,236.94,126,236.67Z" style="fill:#A892E3;stroke:#263238;stroke-linecap:round;stroke-linejoin:round"></path><path d="M126.74,227.9a37.39,37.39,0,0,1-1,6.09c-.84,3.38-2,4.56-2,4.56s2.16,4.25,8.29,4.74c8.45.67,11.67-5.75,11.67-5.75a19.24,19.24,0,0,1-3.05-9.3Z" style="fill:#fff;stroke:#263238;stroke-linecap:round;stroke-linejoin:round"></path><path d="M136.52,199.16s-3.72,6.51-7.25,9.85a47.17,47.17,0,0,1-9.48,6.32s1.49,8.55,4.09,13.2,7.81,9.66,14.12,7.43,9.48-13.94,9.48-16.91-.37-7.25-.37-7.25S141.35,208.64,136.52,199.16Z" style="fill:#fff;stroke:#263238;stroke-linecap:round;stroke-linejoin:round"></path><path d="M119.6,216.82s-3.16-1.67-3.53,2,6.51,6.32,6.51,6.32Z" style="fill:#fff;stroke:#263238;stroke-linecap:round;stroke-linejoin:round"></path><path d="M147.67,215s2.6-1.49,2.42,2.23a6.82,6.82,0,0,1-3.16,5.39Z" style="fill:#fff;stroke:#263238;stroke-linecap:round;stroke-linejoin:round"></path><path d="M130.94,217.38c0,.92-.5,1.67-1.11,1.67s-1.12-.75-1.12-1.67.5-1.68,1.12-1.68S130.94,216.45,130.94,217.38Z" style="fill:#263238"></path><path d="M141,217.38c0,.92-.5,1.67-1.12,1.67s-1.11-.75-1.11-1.67.5-1.68,1.11-1.68S141,216.45,141,217.38Z" style="fill:#263238"></path><path d="M133,222.58s1.67,1.67,4.27-.19" style="fill:none;stroke:#263238;stroke-miterlimit:10"></path><path d="M126.11,213.66s1.49-1.86,5-1.67" style="fill:none;stroke:#263238;stroke-miterlimit:10"></path><path d="M138,212s3.35-.56,5.21,1.48" style="fill:none;stroke:#263238;stroke-miterlimit:10"></path><path d="M138.75,225.55c-4.46,2.42-7.25,0-7.25,0s.37,4.65,3,4.84S138.75,225.55,138.75,225.55Z" style="fill:none;stroke:#263238;stroke-miterlimit:10"></path><path d="M117.78,238.05s-8.17-.51-12.57,5.07-8.36,44.73-5.82,46.25,7.62-.54,8.63-1.73,7.84-30.43,7.84-30.43" style="fill:#A892E3;stroke:#263238;stroke-linecap:round;stroke-linejoin:round"></path><path d="M100.83,261.2c-2.11,11.25-4.46,27.1-3,28,2.54,1.52,8.63.51,9.64-.68.68-.79,5-16.26,6.74-24.4Z" style="fill:#fff;stroke:#263238;stroke-linecap:round;stroke-linejoin:round"></path><path d="M149.81,238.13a12.88,12.88,0,0,1,11.05,3.68c1.81,1.76,3.32,9.35,5.45,16.09,3.89,12.22,5.9,25.9,4.41,27.08-2.32,1.84-4.78,4-5.93,3s-14.53-31.72-14.53-31.72" style="fill:#A892E3;stroke:#263238;stroke-linecap:round;stroke-linejoin:round"></path><path d="M166.31,257.9c3.54,10.88,8.68,27.09,7.31,28.17-2.32,1.84-7.68,2.92-8.83,1.87-.78-.7-8.09-17.62-11.58-25.23Z" style="fill:#fff;stroke:#263238;stroke-linecap:round;stroke-linejoin:round"></path><path d="M160.77,266.22s-2.28-6.13-3.12-6.86-8.42-6-8.42-6l-.1,1.77,4.05,3-4-.62.11,1.66,4.78,2-5-.31v1.76l4.47.73-4.47,1.25.46,1.05h4.22s1.14,3.64,2.6,4.78a6.64,6.64,0,0,0,3.84,1s1.52,13.61,4.54,16.52,10.29,3.4,10.5-1.28-.63-5.79-3.85-8.59S160.77,266.22,160.77,266.22Z" style="fill:#fff;stroke:#263238;stroke-linecap:round;stroke-linejoin:round"></path><path d="M149.26,273.19H138.6l-1-19.54a1.06,1.06,0,0,1,1-1.11l9.78-.6a1.06,1.06,0,0,1,1.12,1.07Z" style="fill:#263238;stroke:#263238;stroke-linecap:round;stroke-linejoin:round"></path><path d="M101.92,278.71,130.63,268s3.38-2.54,3.89-3.05,3.55-2.7,3.55-2.7v2.53l11.83,3.55s-.5,1.36-1.18,1.36c0,0,2,.67,2,1.35a3.21,3.21,0,0,1-1,2.7c-1,.85-6.93,1.53-9.46,1.53a61.44,61.44,0,0,1-8.63-1.36s-20.59,15.14-24,16.49-9.13,3.05-9.81-1.18,1.61-11.42,1.61-11.42" style="fill:#fff;stroke:#263238;stroke-linecap:round;stroke-linejoin:round"></path><path d="M148.72,269.67A75.47,75.47,0,0,1,139,268.3" style="fill:none;stroke:#263238;stroke-miterlimit:10"></path><path d="M150.38,271.84s-8.63-.11-11.23-.94" style="fill:none;stroke:#263238;stroke-miterlimit:10"></path><path d="M139.46,273.61s6.65.93,9.46.52" style="fill:none;stroke:#263238;stroke-miterlimit:10"></path></g><g id="freepik--letter-z--inject-60"><path d="M230.12,458.53V395.59L417.54,171.41H251.29l-16.78-9.35L495.68,101.7l16.78,11.24v54.22L317,398.56H520v60Z" style="fill:#263238;stroke:#263238;stroke-miterlimit:10"></path><path d="M213.33,458.53v-65L400.75,162.06H234.51V101.7H495.68v56L300.23,398.41h203v60.12Z" style="fill:#A892E3;stroke:#263238;stroke-miterlimit:10"></path></g></svg>
