<?xml version="1.0" standalone="no"?>
<!DOCTYPE svg PUBLIC "-//W3C//DTD SVG 20010904//EN"
 "http://www.w3.org/TR/2001/REC-SVG-20010904/DTD/svg10.dtd">
<svg version="1.0" xmlns="http://www.w3.org/2000/svg"
 width="1013.000000pt" height="1280.000000pt" viewBox="0 0 1013.000000 1280.000000"
 preserveAspectRatio="xMidYMid meet">
<metadata>
Created by potrace 1.15, written by Peter Selinger 2001-2017
</metadata>
<g transform="translate(0.000000,1280.000000) scale(0.100000,-0.100000)"
fill="#00bcd4" stroke="none">
<path d="M4376 12530 c-192 -22 -365 -66 -492 -125 -248 -114 -428 -330 -510
-611 -15 -53 -15 -57 5 -104 12 -27 21 -54 21 -60 0 -21 -82 34 -249 169 -279
224 -360 274 -434 269 -35 -3 -44 -8 -56 -33 -8 -16 -20 -42 -28 -57 -20 -40
-16 -60 31 -165 52 -118 66 -161 150 -459 112 -395 200 -627 313 -827 32 -56
60 -106 62 -110 2 -5 -11 -1 -28 8 -75 38 -235 92 -511 171 -162 47 -324 94
-359 105 -51 15 -66 17 -73 7 -13 -21 -10 -25 30 -36 115 -31 668 -194 727
-215 39 -13 109 -41 157 -61 109 -47 118 -65 81 -152 -13 -33 -34 -85 -46
-117 -16 -43 -26 -57 -37 -53 -171 56 -607 159 -612 144 -2 -5 -57 55 -123
134 -144 172 -427 459 -548 555 l-88 70 -447 -225 c-466 -234 -626 -321 -752
-405 -163 -110 -285 -225 -335 -319 -17 -34 -18 -39 -4 -55 9 -10 371 -416
805 -903 434 -487 799 -898 811 -914 29 -36 22 -66 -27 -126 -21 -25 -51 -67
-68 -94 l-31 -49 5 -166 c6 -163 7 -167 40 -240 46 -98 112 -196 191 -282 45
-50 62 -74 54 -82 -7 -7 -23 -2 -52 19 -118 81 -272 342 -286 483 -13 128 -22
75 -23 -122 0 -199 1 -212 26 -285 78 -228 202 -356 458 -472 164 -75 410
-122 636 -123 196 0 271 14 416 79 39 18 53 -891 20 -1335 -9 -128 -32 -407
-51 -620 -53 -587 -96 -1166 -95 -1287 0 -30 4 -32 140 -93 177 -78 309 -131
325 -131 37 0 45 184 24 561 -11 192 -8 269 10 269 5 0 15 -21 22 -47 15 -50
16 -140 8 -633 -4 -231 -3 -249 18 -315 21 -65 25 -72 65 -91 24 -12 59 -25
78 -29 19 -4 49 -16 67 -26 28 -18 32 -26 38 -82 5 -51 55 -1160 55 -1219 0
-14 8 -18 39 -18 49 0 57 -18 41 -94 -8 -38 -32 -86 -82 -162 -98 -150 -111
-183 -112 -275 -1 -91 20 -130 99 -184 67 -46 141 -65 246 -65 192 0 409 76
609 212 143 99 141 98 257 98 56 0 108 -2 116 -5 12 -5 12 -16 0 -73 -21 -106
-28 -288 -14 -367 24 -135 66 -198 182 -265 165 -97 356 -149 575 -157 178 -7
263 8 373 63 143 71 253 236 252 377 0 86 -32 144 -151 277 -89 99 -101 115
-82 118 52 8 127 149 167 314 35 146 52 302 70 623 23 421 47 587 111 773 15
42 27 93 28 112 1 32 5 36 41 48 85 28 118 27 163 -5 24 -18 67 -35 102 -43
46 -10 65 -19 79 -39 53 -76 115 -287 292 -996 219 -875 263 -1011 343 -1049
130 -62 328 -11 855 221 l215 94 45 -51 46 -50 220 88 c351 142 700 261 868
297 38 8 35 42 -9 93 -33 39 -39 56 -75 225 -172 798 -667 2394 -921 2972 -22
49 -51 127 -64 173 -46 157 -121 264 -195 279 l-30 6 25 26 c32 33 32 39 2
104 -14 29 -36 78 -50 110 l-26 59 -77 -42 -77 -43 -90 5 c-85 5 -123 15 -232
64 -6 3 -38 -18 -72 -46 -81 -67 -114 -80 -213 -80 -113 0 -265 24 -563 87
l-29 6 7 -44 c11 -70 49 -137 137 -237 44 -52 78 -96 75 -99 -28 -28 -166 94
-215 190 -37 72 -52 146 -81 392 -30 254 -98 614 -137 727 -16 46 -11 77 7 48
16 -26 69 -192 84 -266 9 -39 27 -141 41 -225 14 -85 37 -207 52 -273 26 -115
28 -119 59 -132 113 -47 465 -124 567 -124 72 0 146 30 190 77 l27 29 -31 30
c-94 88 -106 255 -24 334 41 40 97 49 149 25 74 -35 84 -118 32 -265 -39 -108
-39 -109 19 -139 94 -49 274 -30 347 36 10 9 18 23 18 32 0 21 -51 121 -100
197 -61 93 -87 168 -121 351 -35 186 -119 468 -204 679 -31 75 -73 209 -99
314 -53 212 -109 350 -201 504 -139 231 -312 418 -500 539 -111 71 -162 93
-295 127 -69 18 -128 34 -133 37 -4 2 25 39 64 81 129 140 244 334 324 547 21
55 62 196 91 314 30 118 56 217 59 220 3 2 58 -1 123 -8 127 -13 287 -46 680
-141 139 -33 257 -58 262 -55 25 15 6 33 -47 44 -32 7 -186 44 -343 82 -299
72 -464 104 -592 115 l-76 6 18 52 c23 66 44 109 64 125 13 11 22 9 52 -10 85
-52 216 -15 327 95 l60 59 78 -7 c75 -6 79 -5 79 14 0 18 -6 20 -65 20 -36 0
-65 4 -65 8 0 5 13 33 30 63 82 148 123 377 101 564 -60 518 -395 994 -1045
1487 -72 54 -160 123 -196 153 -252 210 -677 361 -1110 394 -180 14 -1264 22
-1364 11z m-1583 -611 c23 -12 155 -97 293 -188 271 -181 376 -238 496 -270
115 -31 371 -135 463 -188 136 -78 291 -215 315 -279 7 -16 18 -87 25 -158 12
-110 19 -139 50 -203 79 -168 278 -313 599 -438 152 -59 606 -202 700 -220
411 -79 740 -57 1093 73 l83 31 110 -112 c60 -61 110 -111 110 -112 0 -1 -28
-5 -63 -9 -147 -15 -391 -88 -647 -193 -142 -59 -540 -240 -553 -252 -4 -4 -5
-15 -2 -24 6 -13 29 -5 143 49 473 225 769 332 1036 377 l128 21 43 -45 c36
-38 44 -55 54 -110 6 -36 11 -88 11 -116 l0 -51 -87 -6 c-199 -16 -494 -67
-838 -147 -147 -33 -167 -41 -148 -60 9 -9 46 -4 150 20 324 76 632 130 831
147 l82 7 0 -27 c0 -102 -84 -364 -180 -563 -97 -202 -161 -303 -228 -363 -64
-58 -196 -155 -258 -190 l-41 -23 -119 31 c-220 58 -517 103 -888 135 -124 11
-149 11 -153 0 -3 -8 -3 -16 0 -20 3 -3 94 -14 201 -24 254 -24 420 -45 586
-75 140 -26 285 -60 308 -73 24 -13 -183 -100 -312 -132 -108 -25 -150 -24
-232 7 -177 68 -667 233 -675 228 -29 -17 12 -37 247 -118 321 -111 357 -125
324 -125 -14 0 -99 8 -190 19 -226 27 -289 26 -381 -6 -56 -21 -94 -27 -159
-28 -75 -1 -91 2 -140 28 -109 57 -171 98 -185 126 -19 37 -8 49 79 85 68 28
151 96 175 142 15 30 14 95 -2 118 -13 17 -17 17 -90 -8 -109 -38 -144 -42
-226 -23 -106 24 -151 45 -162 74 -25 66 -49 -65 -29 -161 15 -73 46 -111 106
-127 25 -7 48 -19 51 -26 8 -20 -34 -90 -73 -122 -33 -27 -44 -31 -105 -31
-79 0 -162 24 -261 76 -119 62 -191 116 -231 174 -36 50 -37 54 -18 57 33 5
121 -16 180 -44 38 -17 58 -21 65 -14 7 7 5 15 -6 26 -25 25 -146 65 -218 71
-36 3 -72 11 -80 19 -8 7 -51 31 -95 53 -44 23 -98 57 -120 76 -39 34 -40 35
-20 51 23 18 135 13 295 -13 138 -22 221 -55 311 -125 32 -24 38 -26 49 -13
15 18 -19 50 -102 95 -113 61 -208 84 -415 101 l-138 11 -83 81 c-109 107
-265 281 -393 437 l-102 124 6 181 c5 162 23 316 45 374 7 21 9 20 94 -22 47
-24 192 -115 322 -202 184 -124 239 -156 248 -147 9 9 9 15 -2 26 -43 39 -487
327 -562 364 l-87 42 13 42 c43 143 72 218 82 218 20 0 233 -147 359 -248 133
-107 241 -201 418 -366 103 -95 120 -107 133 -95 12 13 -4 31 -126 143 -297
272 -536 465 -698 562 l-81 49 -67 140 c-148 310 -274 614 -358 867 -43 130
-166 550 -166 569 0 16 39 10 83 -12z m2637 -524 c170 -19 311 -46 377 -74 27
-11 93 -37 148 -57 256 -94 567 -287 866 -537 146 -123 339 -306 322 -307 -6
0 -116 81 -243 181 -266 207 -442 336 -574 419 -94 59 -252 142 -296 155 -14
4 -74 31 -135 61 -119 58 -247 94 -412 115 -135 18 -555 16 -844 -5 -278 -19
-319 -20 -319 -5 0 23 106 53 245 69 124 14 696 4 865 -15z m177 -214 c9 -15
27 -19 91 -23 156 -9 219 -85 154 -186 -36 -55 -102 -63 -184 -21 l-38 20 -10
-26 c-6 -15 -10 -37 -10 -50 0 -29 -19 -36 -63 -24 -60 16 -60 21 -10 182 26
81 49 147 52 147 4 0 11 -8 18 -19z m-932 -95 c154 -38 362 -110 830 -286 710
-267 1006 -367 1395 -469 100 -26 53 -26 -120 -1 -405 59 -726 163 -1540 500
-445 183 -687 260 -825 260 -52 0 -65 7 -47 24 13 15 206 -3 307 -28z m-105
-311 c84 -179 171 -268 335 -345 44 -21 186 -73 315 -115 332 -110 520 -179
492 -183 -42 -6 -310 38 -446 73 -469 120 -768 345 -783 590 -3 42 0 82 7 100
l12 30 11 -25 c5 -14 31 -70 57 -125z m-2889 74 c-5 -14 -17 -69 -27 -124 -23
-124 -26 -559 -5 -818 7 -93 10 -171 7 -175 -4 -3 -50 0 -104 6 -96 12 -216
41 -502 122 -256 73 -523 129 -688 146 l-63 7 7 31 c10 48 39 89 107 153 120
112 312 222 697 399 129 59 312 147 405 194 94 47 171 85 173 84 1 0 -2 -12
-7 -25z m345 -249 c414 -448 787 -864 1067 -1191 233 -272 487 -591 487 -610
0 -25 -95 -143 -140 -174 l-38 -27 -89 27 c-146 44 -352 126 -745 294 -205 88
-399 169 -430 181 -53 20 -57 23 -52 48 9 42 -27 77 -130 127 l-93 46 -33 107
c-45 147 -87 357 -106 537 -26 240 -12 611 32 879 l6 38 33 -33 c17 -19 122
-131 231 -249z m751 -471 c94 -22 211 -52 260 -68 102 -31 96 -14 59 -187 -14
-67 -29 -175 -34 -240 l-7 -119 -249 320 c-137 176 -253 326 -260 334 -13 16
-16 17 231 -40z m-1970 -300 c263 -55 566 -118 673 -141 234 -49 239 -52 264
-175 9 -43 25 -113 35 -155 18 -77 18 -78 -1 -78 -45 0 -64 -145 -24 -189 21
-23 118 -51 179 -51 35 0 49 5 61 21 14 21 15 21 73 4 32 -9 91 -28 131 -42
l72 -26 0 -39 c0 -64 19 -174 60 -338 39 -157 64 -277 75 -362 l6 -47 -82 -41
c-76 -39 -255 -120 -264 -120 -2 0 -120 125 -262 278 -997 1069 -1483 1592
-1483 1597 0 7 -34 14 487 -96z m1721 -940 c162 -59 670 -261 781 -311 l55
-24 -55 -31 c-30 -17 -112 -73 -184 -124 -71 -51 -154 -107 -184 -125 -50 -31
-55 -31 -87 -18 -44 18 -161 18 -249 -2 -38 -8 -82 -17 -96 -20 -23 -5 -28 -1
-48 45 -27 63 -46 158 -66 331 -18 157 -42 296 -56 322 -15 28 6 24 189 -43z
m1287 -359 c3 -5 1 -10 -4 -10 -6 0 -11 5 -11 10 0 6 2 10 4 10 3 0 8 -4 11
-10z m8 -67 c-12 -34 -62 -99 -168 -218 -121 -137 -185 -227 -185 -261 0 -28
31 -38 235 -76 152 -29 198 -48 215 -88 21 -52 0 -85 -144 -225 -114 -110
-136 -137 -146 -174 -32 -120 61 -168 385 -202 265 -27 339 -42 366 -75 11
-13 1 -14 -82 -9 -185 12 -396 36 -491 55 -221 45 -310 114 -249 191 10 14 26
41 35 62 9 23 59 81 120 142 103 102 137 149 150 211 l7 32 -103 6 c-219 15
-362 53 -374 100 -7 29 24 110 65 169 17 26 76 95 130 155 54 59 115 130 136
157 34 45 57 61 92 64 8 1 10 -6 6 -16z m177 -174 c62 -50 102 -69 268 -120
l143 -44 136 -240 c428 -754 659 -1101 1090 -1638 434 -540 711 -845 1401
-1539 244 -245 441 -451 438 -456 -7 -11 -166 -65 -481 -162 -110 -34 -219
-70 -242 -80 l-42 -18 -51 90 c-131 230 -406 624 -885 1268 -542 728 -714 970
-921 1291 -54 85 -125 186 -157 224 -134 160 -334 485 -478 779 -136 277 -316
721 -281 694 9 -7 37 -29 62 -49z m-1190 -95 c60 -56 76 -95 52 -124 -15 -17
-31 -20 -112 -22 -81 -3 -95 -6 -98 -20 -3 -16 5 -18 56 -18 49 0 66 -5 98
-29 80 -57 94 -118 48 -209 -29 -59 -54 -72 -91 -45 -49 34 -68 43 -100 43
-68 0 -85 -24 -23 -34 21 -3 50 -11 63 -17 30 -14 61 -71 52 -98 -11 -35 -114
-118 -201 -162 -74 -38 -94 -43 -167 -47 -77 -4 -85 -3 -112 21 -17 14 -46 52
-65 86 -19 33 -39 59 -45 57 -21 -7 -9 -84 20 -126 42 -60 68 -70 185 -70 55
0 100 -3 100 -7 0 -18 -41 -73 -65 -89 -38 -25 -149 -15 -208 19 -71 42 -198
243 -228 360 -16 66 -6 153 25 219 30 63 48 75 82 53 22 -14 25 -13 56 26 82
102 260 204 435 250 158 41 183 39 243 -17z m1969 -3 c20 -15 78 -52 129 -82
l93 -54 -97 -3 c-129 -4 -267 33 -281 75 -3 9 98 90 116 92 2 1 20 -12 40 -28z
m1875 -206 c74 -151 97 -272 60 -310 -36 -35 -110 -58 -229 -70 -55 -6 -278 9
-315 20 -13 4 -16 -6 -18 -53 -1 -31 -6 -102 -10 -157 l-7 -100 -65 -37 c-121
-70 -360 -151 -566 -193 -132 -27 -292 -33 -341 -14 -25 11 -19 13 72 25 305
40 588 130 767 243 l65 41 12 137 c7 76 15 150 18 164 l5 26 51 -20 c86 -32
201 -34 346 -3 69 14 130 31 135 36 25 25 10 142 -34 270 -24 69 -45 132 -47
140 -12 41 63 -66 101 -145z m-2069 74 c22 -16 71 -40 110 -52 117 -37 398
-27 562 19 74 21 296 55 305 46 3 -4 -30 -59 -74 -122 -94 -133 -236 -279
-388 -398 -59 -46 -120 -103 -140 -131 -19 -28 -40 -50 -47 -51 -16 0 -60 67
-215 325 -146 246 -188 327 -188 368 0 36 24 35 75 -4z m1284 -1413 c50 -46
100 -209 87 -282 -9 -45 -76 -119 -139 -153 l-44 -24 -39 44 c-22 24 -68 75
-103 113 -35 38 -75 93 -89 122 l-25 52 19 33 c22 37 98 94 148 109 52 16 161
7 185 -14z m-1438 -101 c90 -32 150 -121 150 -222 0 -101 -85 -241 -158 -259
-39 -10 -139 12 -190 41 -49 29 -97 96 -114 158 -20 75 11 208 59 250 51 46
171 60 253 32z m-55 -1200 c93 -55 120 -187 64 -318 -53 -126 -114 -177 -210
-176 -69 0 -110 19 -146 66 -60 79 -67 188 -17 288 70 143 202 203 309 140z
m1376 -115 c146 -97 192 -300 93 -408 -31 -34 -37 -37 -92 -37 -51 0 -68 6
-129 42 -73 43 -137 104 -149 143 -4 12 -4 51 0 85 5 52 13 72 42 110 20 25
55 57 77 70 56 34 102 32 158 -5z m1675 -224 c45 -37 68 -46 176 -67 160 -31
180 -37 172 -57 -16 -37 -17 -179 -2 -263 23 -130 73 -216 173 -299 97 -81
212 -122 343 -121 76 0 101 11 101 41 0 19 35 36 135 65 166 47 258 143 281
291 l7 49 13 -30 c17 -40 333 -990 429 -1290 130 -405 231 -732 360 -1160 182
-605 208 -696 198 -705 -4 -4 -46 -17 -93 -30 -173 -45 -440 -123 -594 -173
l-158 -52 -34 38 c-39 46 -104 190 -178 399 -84 236 -150 451 -446 1443 -201
676 -334 1061 -408 1186 -62 106 -242 369 -297 432 -68 81 -181 179 -283 248
l-74 49 34 15 c52 22 112 19 145 -9z m1137 -7 c46 -40 123 -155 143 -215 12
-36 14 -69 10 -144 -10 -163 -60 -253 -154 -279 -21 -6 -74 -8 -125 -4 -86 6
-87 6 -118 45 -44 55 -76 74 -95 58 -22 -18 -11 -44 47 -120 47 -61 48 -64 28
-72 -33 -12 -150 10 -196 37 -51 30 -151 136 -188 199 -72 124 -86 246 -37
337 l29 54 98 7 c102 8 291 54 414 101 85 33 103 33 144 -4z m-1334 -89 c19
-5 54 -22 76 -37 l42 -28 -92 0 c-72 0 -98 -4 -119 -18 -15 -10 -25 -22 -22
-27 9 -14 -1 -12 -34 4 -43 23 -53 40 -42 69 16 41 112 59 191 37z m99 -150
c51 -25 94 -78 135 -165 l34 -70 -27 -17 c-34 -23 -93 -23 -113 0 -8 9 -35 55
-59 101 -23 46 -54 97 -67 113 -27 32 -27 33 8 47 36 14 47 13 89 -9z m223
-99 c61 -71 261 -404 334 -556 152 -315 240 -572 448 -1302 228 -802 329
-1087 506 -1431 l91 -176 -28 -22 c-15 -13 -33 -23 -40 -24 -16 0 -97 128
-158 255 -127 259 -245 603 -440 1275 -260 896 -337 1141 -440 1405 -66 167
-175 387 -234 470 -61 84 -95 145 -82 145 5 0 24 -18 43 -39z m61 -478 c8 -21
38 -101 67 -178 29 -77 64 -161 78 -188 14 -26 23 -49 21 -51 -4 -4 -94 -33
-534 -171 -99 -31 -220 -72 -268 -92 -66 -26 -91 -32 -101 -23 -24 19 -55 106
-96 260 -22 83 -44 159 -50 170 -8 15 -7 21 7 28 84 45 788 279 844 281 10 1
23 -14 32 -36z m232 -610 c72 -209 218 -610 485 -1333 317 -857 363 -989 347
-996 -587 -229 -914 -350 -924 -340 -41 39 -175 437 -388 1156 -238 800 -324
1063 -410 1247 l-43 92 51 24 c91 43 785 285 818 286 12 1 29 -35 64 -136z
m-1305 -651 c0 -16 -11 -61 -24 -100 -53 -155 -81 -350 -116 -797 -24 -299
-43 -459 -72 -600 -34 -169 -50 -191 -157 -225 -167 -53 -513 -46 -991 21
-226 31 -241 38 -206 92 28 42 66 175 86 298 46 289 76 740 67 1025 l-5 181
342 6 c219 3 387 11 471 21 156 19 384 60 480 86 39 10 82 19 98 19 23 1 27
-3 27 -27z m-1890 -77 c135 -8 280 -15 322 -15 42 0 79 -3 81 -7 9 -15 -93
-1196 -104 -1210 -6 -7 -17 -13 -24 -13 -7 0 -37 -11 -66 -23 -129 -57 -212
-72 -394 -72 -164 0 -173 1 -255 31 -96 34 -183 88 -230 140 -27 32 -30 41
-30 107 0 40 9 169 21 287 34 365 27 618 -22 743 -11 26 -19 51 -19 54 0 9
425 -4 720 -22z m-145 -1460 c64 -17 136 -58 175 -100 l25 -26 -25 -20 c-57
-44 -99 -43 -222 5 -140 54 -252 42 -428 -46 -58 -29 -109 -54 -114 -57 -18
-8 40 65 88 112 55 52 160 109 246 131 73 19 182 20 255 1z m1316 -431 c159
-30 330 -95 372 -142 18 -20 18 -21 -2 -31 -35 -19 -63 -12 -203 54 -76 36
-166 73 -200 81 -129 33 -245 0 -340 -98 l-48 -49 0 43 c0 72 44 122 130 149
44 13 205 10 291 -7z"/>
<path d="M3340 11391 c0 -41 108 -179 254 -326 171 -172 169 -167 110 -273
-68 -120 -84 -155 -84 -179 0 -13 5 -23 11 -23 22 0 206 138 223 167 14 25 0
117 -27 170 -35 67 -92 128 -254 270 -76 67 -155 142 -176 167 -41 50 -57 57
-57 27z"/>
<path d="M3895 9515 c-119 -23 -229 -54 -255 -74 -42 -31 -35 -42 49 -81 8 -3
24 -35 36 -71 57 -167 128 -240 329 -335 72 -34 81 -36 152 -32 74 5 76 6 123
52 25 25 50 46 53 46 4 0 9 -13 13 -29 8 -35 29 -55 50 -47 12 4 15 23 15 88
0 224 -65 347 -245 466 -47 31 -52 32 -149 31 -56 0 -132 -7 -171 -14z m119
-68 c22 -16 20 -55 -9 -188 -29 -133 -5 -169 114 -169 85 0 113 24 109 93 -3
49 -4 50 -43 61 -53 15 -51 37 5 50 l45 11 -2 50 -1 50 57 -61 c57 -61 80
-108 96 -206 6 -37 5 -37 -37 -48 -53 -15 -68 -26 -68 -53 0 -60 -78 -74 -169
-32 -103 48 -271 189 -271 226 0 7 -18 43 -40 80 -22 37 -40 74 -40 82 0 14
75 44 145 60 41 9 92 7 109 -6z"/>
<path d="M5806 9250 c-85 -11 -155 -33 -210 -67 -47 -29 -222 -202 -284 -281
-70 -89 -50 -134 32 -72 39 29 40 30 60 12 12 -10 39 -30 61 -45 22 -15 60
-43 85 -62 93 -72 213 -97 361 -76 180 26 197 36 303 188 32 46 77 106 102
135 24 28 44 58 44 65 0 7 -10 22 -22 33 -34 32 -198 128 -256 150 -61 23
-181 32 -276 20z m374 -162 c41 -22 76 -42 78 -43 1 -1 -26 -41 -60 -87 -35
-47 -79 -107 -98 -133 -55 -76 -92 -90 -235 -90 -161 0 -212 16 -307 96 -40
34 -83 66 -95 72 -13 6 -23 16 -23 22 0 18 149 158 214 201 82 54 86 49 86
-101 0 -137 9 -173 55 -215 23 -21 36 -25 90 -25 59 0 67 3 100 35 29 28 35
41 35 76 0 57 -8 74 -34 74 -12 0 -39 12 -60 27 l-39 26 59 21 59 22 -2 52 -2
51 52 -20 c29 -11 86 -39 127 -61z"/>
<path d="M5666 11075 c-30 -46 -15 -70 50 -85 85 -19 116 38 47 85 -47 32 -76
32 -97 0z"/>
<path d="M8014 5839 c-58 -29 -76 -146 -36 -230 12 -24 30 -50 41 -56 17 -11
23 -9 39 12 27 34 65 179 57 215 -6 30 -47 71 -69 69 -6 0 -20 -5 -32 -10z"/>
</g>
</svg>
